<svg width="14" height="12" fill="none" xmlns="http://www.w3.org/2000/svg"><path d="M2 7.99999V12h4V7.99999h2V12h4V7.99999l-5-4.484-5 4.484z" fill="#C1C6CE"/><path d="M13.831 6.365L12 4.751V0H9.99998v2.987L7.33198.635c-.02-.017-.043-.023-.064-.037-.02504-.018295-.05184-.03404-.08-.047-.0309-.010805-.06269-.018837-.095-.024-.031-.006-.061-.012-.093-.012-.031 0-.061.006-.092.012-.03247.004919-.06432.0133-.095.025-.028.011-.053.029-.08.046-.021.014-.045.02-.064.037L.170976 6.365c-.1547359.13791-.2085713.35687-.1354286.5508.0731426.19394.2581596.32282.4654286.3242.121931.00035.239735-.04414.331-.125L6.99998 1.677 13.169 7.115c.2088.16413.5094.13678.6852-.06235.1757-.19913.1656-.50082-.0232-.68765z" fill="#C1C6CE"/></svg>